REM DIRINDEX 1\2\5,1\2\6,1\2\7,1\2\8,1\3\9,1\3\10,1\3\11,1\4\12,1\4\13,1\4\14,1\4\15,1\4\16
REM DIRNAME folder01,folder02,folder03,folder04,folder05,folder06,folder07,folder08,folder09,folder10,folder11,folder12,folder13,folder14,folder15,folder16
TITLE ""
FILE "1200_2_sec02_0292_0307.mp3" MP3
  TRACK 01 AUDIO
    TITLE "0:"
    INDEX 01 00:00:00
  TRACK 02 AUDIO
    TITLE "10:cjc034_00600"
    INDEX 01 00:00:15
  TRACK 03 AUDIO
    TITLE "0:"
    INDEX 01 00:01:34
  TRACK 04 AUDIO
    TITLE "9:cjc034_00601"
    INDEX 01 00:01:36
  TRACK 05 AUDIO
    TITLE "0:"
    INDEX 01 00:02:32
  TRACK 06 AUDIO
    TITLE "10:cjc034_00602"
    INDEX 01 00:03:15
  TRACK 07 AUDIO
    TITLE "0:"
    INDEX 01 00:04:44
  TRACK 08 AUDIO
    TITLE "9:cjc034_00603"
    INDEX 01 00:04:46
  TRACK 09 AUDIO
    TITLE "0:"
    INDEX 01 00:05:63
  TRACK 10 AUDIO
    TITLE "10:cjc034_00604"
    INDEX 01 00:06:43
  TRACK 11 AUDIO
    TITLE "0:"
    INDEX 01 00:07:35
  TRACK 12 AUDIO
    TITLE "9:cjc034_00605"
    INDEX 01 00:07:43
  TRACK 13 AUDIO
    TITLE "0:"
    INDEX 01 00:08:46
  TRACK 14 AUDIO
    TITLE "10:cjc034_00606"
    INDEX 01 00:09:28
  TRACK 15 AUDIO
    TITLE "0:"
    INDEX 01 00:10:27
  TRACK 16 AUDIO
    TITLE "9:cjc034_00607"
    INDEX 01 00:10:29
  TRACK 17 AUDIO
    TITLE "0:"
    INDEX 01 00:11:29
  TRACK 18 AUDIO
    TITLE "11:cjc034_00608"
    INDEX 01 00:13:06
  TRACK 19 AUDIO
    TITLE "0:"
    INDEX 01 00:14:60
  TRACK 20 AUDIO
    TITLE "10:cjc034_00609"
    INDEX 01 00:15:64
  TRACK 21 AUDIO
    TITLE "0:"
    INDEX 01 00:18:07
  TRACK 22 AUDIO
    TITLE "9:cjc034_00610"
    INDEX 01 00:18:09
  TRACK 23 AUDIO
    TITLE "0:"
    INDEX 01 00:19:11
  TRACK 24 AUDIO
    TITLE "10:cjc034_00611"
    INDEX 01 00:19:71
  TRACK 25 AUDIO
    TITLE "0:"
    INDEX 01 00:22:05
  TRACK 26 AUDIO
    TITLE "9:cjc034_00612"
    INDEX 01 00:22:11
  TRACK 27 AUDIO
    TITLE "0:"
    INDEX 01 00:23:12
  TRACK 28 AUDIO
    TITLE "10:cjc034_00613"
    INDEX 01 00:23:71
  TRACK 29 AUDIO
    TITLE "0:"
    INDEX 01 00:25:15
  TRACK 30 AUDIO
    TITLE "9:cjc034_00614"
    INDEX 01 00:25:17
  TRACK 31 AUDIO
    TITLE "0:"
    INDEX 01 00:26:28
  TRACK 32 AUDIO
    TITLE "10:cjc034_00615"
    INDEX 01 00:27:10
  TRACK 33 AUDIO
    TITLE "0:"
    INDEX 01 00:28:23
  TRACK 34 AUDIO
    TITLE "9:cjc034_00616"
    INDEX 01 00:28:29
  TRACK 35 AUDIO
    TITLE "0:"
    INDEX 01 00:29:36
  TRACK 36 AUDIO
    TITLE "10:cjc034_00617"
    INDEX 01 00:30:22
  TRACK 37 AUDIO
    TITLE "0:"
    INDEX 01 00:32:41
  TRACK 38 AUDIO
    TITLE "9:cjc034_00618"
    INDEX 01 00:32:47
  TRACK 39 AUDIO
    TITLE "0:"
    INDEX 01 00:33:40
  TRACK 40 AUDIO
    TITLE "10:cjc034_00619"
    INDEX 01 00:34:22
  TRACK 41 AUDIO
    TITLE "0:"
    INDEX 01 00:35:33
  TRACK 42 AUDIO
    TITLE "9:cjc034_00620"
    INDEX 01 00:35:39
  TRACK 43 AUDIO
    TITLE "0:"
    INDEX 01 00:36:50
  TRACK 44 AUDIO
    TITLE "10:cjc034_00621"
    INDEX 01 00:37:28
  TRACK 45 AUDIO
    TITLE "0:"
    INDEX 01 00:38:24
  TRACK 46 AUDIO
    TITLE "9:cjc034_00622"
    INDEX 01 00:38:31
  TRACK 47 AUDIO
    TITLE "0:"
    INDEX 01 00:39:37
  TRACK 48 AUDIO
    TITLE "10:cjc034_00623"
    INDEX 01 00:40:21
  TRACK 49 AUDIO
    TITLE "0:"
    INDEX 01 00:41:42
  TRACK 50 AUDIO
    TITLE "9:cjc034_00624"
    INDEX 01 00:41:47
  TRACK 51 AUDIO
    TITLE "0:"
    INDEX 01 00:42:72
  TRACK 52 AUDIO
    TITLE "10:cjc034_00625"
    INDEX 01 00:43:54
  TRACK 53 AUDIO
    TITLE "0:"
    INDEX 01 00:44:67
  TRACK 54 AUDIO
    TITLE "9:cjc034_00626"
    INDEX 01 00:44:73
  TRACK 55 AUDIO
    TITLE "0:"
    INDEX 01 00:46:17
  TRACK 56 AUDIO
    TITLE "10:cjc034_00627"
    INDEX 01 00:46:70
  TRACK 57 AUDIO
    TITLE "0:"
    INDEX 01 00:47:72
  TRACK 58 AUDIO
    TITLE "9:cjc034_00628"
    INDEX 01 00:48:00
  TRACK 59 AUDIO
    TITLE "0:"
    INDEX 01 00:49:25
  TRACK 60 AUDIO
    TITLE "10:cjc034_00629"
    INDEX 01 00:50:09
  TRACK 61 AUDIO
    TITLE "0:"
    INDEX 01 00:51:09
  TRACK 62 AUDIO
    TITLE "9:cjc034_00630"
    INDEX 01 00:51:16
  TRACK 63 AUDIO
    TITLE "0:"
    INDEX 01 00:52:24
  TRACK 64 AUDIO
    TITLE "10:cjc034_00631"
    INDEX 01 00:53:13
  TRACK 65 AUDIO
    TITLE "0:"
    INDEX 01 00:55:34
  TRACK 66 AUDIO
    TITLE "9:cjc034_00632"
    INDEX 01 00:55:38
  TRACK 67 AUDIO
    TITLE "0:"
    INDEX 01 00:56:45
